<svg xmlns="http://www.w3.org/2000/svg" width="1160" height="902" viewBox="0 0 1160 902">
<rect width="100%" height="100%" fill="#ffffff"/>
<g transform="translate(20,40)"><rect x="0" y="0" width="660" height="760" fill="#e6e1d8"/><rect x="360" y="30" width="80" height="610" fill="#efe7da" stroke="#1b2324" stroke-width="2"/><rect x="385" y="50" width="30" height="570" fill="#b99a86" opacity="0.45"/><line x1="368" y1="30" x2="432" y2="30" stroke="#6f8fb8" stroke-width="7"/><text x="452" y="330" font-size="13" fill="#1b2324" text-anchor="start" font-weight="700" font-family="Arial, Helvetica, sans-serif">UPPER CORRIDOR</text><rect x="440" y="30" width="200" height="610" fill="#ddd6ca" stroke="#667073"/><rect x="436" y="120" width="8" height="40" fill="#8a6a45"/><rect x="436" y="380" width="8" height="40" fill="#8a6a45"/><rect x="436" y="520" width="8" height="40" fill="#8a6a45"/><text x="540" y="460" font-size="12" fill="#667073" text-anchor="middle" font-weight="400" font-family="Arial, Helvetica, sans-serif">other rooms</text><rect x="80" y="30" width="280" height="220" fill="#ddd6ca" stroke="#667073"/><text x="220" y="140" font-size="12" fill="#667073" text-anchor="middle" font-weight="400" font-family="Arial, Helvetica, sans-serif">other room</text><text x="355" y="22" font-size="12" fill="#1b2324" text-anchor="end" font-weight="700" font-family="Arial, Helvetica, sans-serif">FAR WINDOW (north) →</text><rect x="250" y="640" width="390" height="110" fill="#e0d6c4" stroke="#1b2324" stroke-width="2"/><text x="445" y="700" font-size="13" fill="#1b2324" text-anchor="middle" font-weight="700" font-family="Arial, Helvetica, sans-serif">CENTRAL LANDING (south) — top of main stair</text><text x="445" y="718" font-size="11" fill="#667073" text-anchor="middle" font-weight="400" font-family="Arial, Helvetica, sans-serif">monitor table + upper service door on its west wall</text><rect x="80" y="250" width="280" height="370" fill="#f4efe6" stroke="#1b2324" stroke-width="3"/><text x="220" y="606" font-size="16" fill="#1b2324" text-anchor="middle" font-weight="700" font-family="Arial, Helvetica, sans-serif">NURSERY</text><line x1="80" y1="265" x2="80" y2="345" stroke="#6f8fb8" stroke-width="7"/><text x="8" y="300" font-size="11" fill="#667073" text-anchor="start" font-weight="700" font-family="Arial, Helvetica, sans-serif">WINDOW</text><rect x="354" y="270" width="12" height="60" fill="#ffffff" stroke="#1b2324"/><path d="M360 270 A60 60 0 0 0 300 330" fill="none" stroke="#667073" stroke-dasharray="4 4"/><text x="300" y="262" font-size="12" fill="#1b2324" text-anchor="middle" font-weight="700" font-family="Arial, Helvetica, sans-serif">NURSERY DOOR</text><rect x="86" y="390" width="62" height="200" rx="3" fill="#ffffff" stroke="#1b2324"/><text x="117" y="500" font-size="12" fill="#1b2324" text-anchor="middle" font-weight="700" font-family="Arial, Helvetica, sans-serif">BED</text><text x="117" y="404" font-size="10" fill="#667073" text-anchor="middle" font-weight="400" font-family="Arial, Helvetica, sans-serif">foot</text><rect x="86" y="592" width="34" height="24" fill="#b08a62" stroke="#1b2324"/><circle cx="103" cy="604" r="6" fill="#f2b632"/><text x="124" y="590" font-size="10" fill="#667073" text-anchor="start" font-weight="400" font-family="Arial, Helvetica, sans-serif">lamp</text><rect x="306" y="572" width="46" height="42" rx="6" fill="#ffffff" stroke="#1b2324"/><text x="329" y="566" font-size="10" fill="#667073" text-anchor="middle" font-weight="400" font-family="Arial, Helvetica, sans-serif">armchair</text><rect x="170" y="360" width="160" height="200" fill="none" stroke="#667073" stroke-dasharray="5 4"/><rect x="215" y="430" width="60" height="40" fill="#5b3f2a" stroke="#1b2324"/><text x="245" y="455" font-size="10" fill="#ffffff" text-anchor="middle" font-weight="700" font-family="Arial, Helvetica, sans-serif">CHEST</text><circle cx="92" cy="262" r="7" fill="#c1302a"/><text x="102" y="244" font-size="11" fill="#c1302a" text-anchor="start" font-weight="700" font-family="Arial, Helvetica, sans-serif">NURSERY FIXED corner</text><polygon points="400,60 654,581 146,581" fill="#000000" fill-opacity="0.07" stroke="#000" stroke-opacity="0.35" stroke-dasharray="6 5"/><g transform="translate(400,60) rotate(90)"><rect x="-16" y="-11" width="26" height="22" rx="3" fill="#111"/><polygon points="10,-8 22,-13 22,13 10,8" fill="#111"/></g><text x="450" y="50" font-size="13" fill="#000" text-anchor="start" font-weight="700" font-family="Arial, Helvetica, sans-serif">CAMERA 35mm, LOCKED</text><line x1="378" y1="120" x2="372" y2="50" stroke="#5d93bd" stroke-width="3" stroke-dasharray="7 5"/><polygon points="372,50 378.1,60.3 367.7,61.2" fill="#5d93bd"/><circle cx="372" cy="50" r="11" fill="none" stroke="#5d93bd" stroke-width="2.5"/><circle cx="378" cy="120" r="13" fill="#5d93bd" stroke="#fff" stroke-width="2"/><line x1="378" y1="120" x2="378.0" y2="86.0" stroke="#5d93bd" stroke-width="5"/><polygon points="378.0,86.0 383.2,96.8 372.8,96.8" fill="#5d93bd"/><text x="148" y="130" font-size="12" fill="#5d93bd" text-anchor="start" font-weight="700" font-family="Arial, Helvetica, sans-serif">COPPER HAIR, ICE-BLUE BLOUSE</text><text x="148" y="146" font-size="12" fill="#1b2324" text-anchor="start" font-weight="400" font-family="Arial, Helvetica, sans-serif">pass the camera on its</text><text x="148" y="161" font-size="12" fill="#1b2324" text-anchor="start" font-weight="400" font-family="Arial, Helvetica, sans-serif">RIGHT (west) side and exit</text><line x1="402" y1="130" x2="396" y2="55" stroke="#b88a45" stroke-width="3" stroke-dasharray="7 5"/><polygon points="396,55 402.1,65.4 391.7,66.2" fill="#b88a45"/><circle cx="396" cy="55" r="11" fill="none" stroke="#b88a45" stroke-width="2.5"/><circle cx="402" cy="130" r="13" fill="#b88a45" stroke="#fff" stroke-width="2"/><line x1="402" y1="130" x2="402.0" y2="96.0" stroke="#b88a45" stroke-width="5"/><polygon points="402.0,96.0 407.2,106.8 396.8,106.8" fill="#b88a45"/><text x="432" y="190" font-size="12" fill="#b88a45" text-anchor="start" font-weight="700" font-family="Arial, Helvetica, sans-serif">TALL WOMAN, CAMEL COAT</text><circle cx="428" cy="100" r="13" fill="#2f3f8f" stroke="#fff" stroke-width="2"/><line x1="428" y1="100" x2="394.0" y2="100.0" stroke="#2f3f8f" stroke-width="5"/><polygon points="394.0,100.0 404.8,94.8 404.8,105.2" fill="#2f3f8f"/><text x="468" y="124" font-size="12" fill="#2f3f8f" text-anchor="start" font-weight="700" font-family="Arial, Helvetica, sans-serif">BIG BEARDED MAN, INDIGO</text><text x="468" y="140" font-size="12" fill="#1b2324" text-anchor="start" font-weight="400" font-family="Arial, Helvetica, sans-serif">kneels at an open case against</text><text x="468" y="155" font-size="12" fill="#1b2324" text-anchor="start" font-weight="400" font-family="Arial, Helvetica, sans-serif">the east wall, unpacking</text><line x1="400" y1="560" x2="398" y2="330" stroke="#9b3b2b" stroke-width="3" stroke-dasharray="7 5"/><line x1="398" y1="330" x2="372" y2="300" stroke="#9b3b2b" stroke-width="3" stroke-dasharray="7 5"/><polygon points="372,300 383.0,304.7 375.1,311.6" fill="#9b3b2b"/><circle cx="372" cy="300" r="11" fill="none" stroke="#9b3b2b" stroke-width="2.5"/><circle cx="400" cy="560" r="13" fill="#9b3b2b" stroke="#fff" stroke-width="2"/><line x1="400" y1="560" x2="400.0" y2="526.0" stroke="#9b3b2b" stroke-width="5"/><polygon points="400.0,526.0 405.2,536.8 394.8,536.8" fill="#9b3b2b"/><text x="424" y="570" font-size="12" fill="#9b3b2b" text-anchor="start" font-weight="700" font-family="Arial, Helvetica, sans-serif">SMALL WOMAN, RUST VEST</text><text x="424" y="586" font-size="12" fill="#1b2324" text-anchor="start" font-weight="400" font-family="Arial, Helvetica, sans-serif">from the landing with the camera</text><text x="424" y="601" font-size="12" fill="#1b2324" text-anchor="start" font-weight="400" font-family="Arial, Helvetica, sans-serif">+ bracket; turns in at the door</text><line x1="410" y1="610" x2="385" y2="350" stroke="#6b7a3a" stroke-width="3" stroke-dasharray="7 5"/><polygon points="385,350 391.2,360.3 380.8,361.3" fill="#6b7a3a"/><circle cx="385" cy="350" r="11" fill="none" stroke="#6b7a3a" stroke-width="2.5"/><circle cx="410" cy="610" r="13" fill="#6b7a3a" stroke="#fff" stroke-width="2"/><line x1="410" y1="610" x2="410.0" y2="576.0" stroke="#6b7a3a" stroke-width="5"/><polygon points="410.0,576.0 415.2,586.8 404.8,586.8" fill="#6b7a3a"/><text x="434" y="640" font-size="12" fill="#6b7a3a" text-anchor="start" font-weight="700" font-family="Arial, Helvetica, sans-serif">TALL MAN, OLIVE JACKET</text><text x="434" y="656" font-size="12" fill="#1b2324" text-anchor="start" font-weight="400" font-family="Arial, Helvetica, sans-serif">right behind her, raising the handheld</text><text x="760" y="48" font-size="15" fill="#1b2324" text-anchor="start" font-weight="700" font-family="Arial, Helvetica, sans-serif">WHAT THE CAMERA SEES (9:16)</text><rect x="760" y="60" width="300" height="533" fill="#ffffff" stroke="#1b2324" stroke-width="2"/><line x1="860" y1="60" x2="860" y2="593" stroke="#c8cccd" stroke-dasharray="4 4"/><line x1="960" y1="60" x2="960" y2="593" stroke="#c8cccd" stroke-dasharray="4 4"/><text x="810.0" y="611" font-size="11" fill="#667073" text-anchor="middle" font-weight="600" font-family="Arial, Helvetica, sans-serif">LEFT</text><text x="910.0" y="611" font-size="11" fill="#667073" text-anchor="middle" font-weight="600" font-family="Arial, Helvetica, sans-serif">CENTRE</text><text x="1010.0" y="611" font-size="11" fill="#667073" text-anchor="middle" font-weight="600" font-family="Arial, Helvetica, sans-serif">RIGHT</text><rect x="874" y="135" width="72" height="160" fill="#efe7da" fill-opacity="0.85" stroke="#1b2324"/><rect x="952" y="177" width="30" height="149" fill="#ffffff" fill-opacity="0.85" stroke="#1b2324"/><circle cx="940" cy="220" r="5" fill="#9b3b2b"/><rect x="932" y="226" width="15" height="75" rx="4" fill="#9b3b2b"/><circle cx="922" cy="231" r="5" fill="#6b7a3a"/><rect x="914" y="237" width="15" height="80" rx="4" fill="#6b7a3a"/><circle cx="802" cy="353" r="21" fill="#2f3f8f"/><rect x="772" y="377" width="60" height="160" rx="4" fill="#2f3f8f"/><circle cx="1018" cy="87" r="29" fill="#5d93bd"/><rect x="976" y="120" width="84" height="480" rx="4" fill="#5d93bd"/><text x="910" y="151" font-size="11" fill="#1b2324" text-anchor="middle" font-weight="700" font-family="Arial, Helvetica, sans-serif" paint-order="stroke" stroke="#efe7da" stroke-width="4">LANDING (far)</text><text x="967" y="193" font-size="11" fill="#1b2324" text-anchor="middle" font-weight="700" font-family="Arial, Helvetica, sans-serif" paint-order="stroke" stroke="#ffffff" stroke-width="4">DOOR</text><text x="802" y="551" font-size="11" fill="#2f3f8f" text-anchor="middle" font-weight="700" font-family="Arial, Helvetica, sans-serif" paint-order="stroke" stroke="#ffffff" stroke-width="4">BEARDED (kneeling)</text><text x="1018" y="554" font-size="11" fill="#5d93bd" text-anchor="middle" font-weight="700" font-family="Arial, Helvetica, sans-serif" paint-order="stroke" stroke="#ffffff" stroke-width="4">ICE-BLUE + CAMEL exit right</text><text x="760" y="633" font-size="12" fill="#1b2324" text-anchor="start" font-weight="400" font-family="Arial, Helvetica, sans-serif">Women pass the camera on the RIGHT.</text><text x="760" y="649" font-size="12" fill="#1b2324" text-anchor="start" font-weight="400" font-family="Arial, Helvetica, sans-serif">Bearded man kneels in the LEFT foreground.</text><text x="760" y="665" font-size="12" fill="#1b2324" text-anchor="start" font-weight="400" font-family="Arial, Helvetica, sans-serif">Small woman + tall man turn in at the door.</text></g>
<text x="20" y="26" font-size="16" fill="#1b2324" text-anchor="start" font-weight="700" font-family="Arial, Helvetica, sans-serif">SH12 — TOP-DOWN PLAN: positions and directions only, not an image to copy</text>
<text x="20" y="826" font-size="14" fill="#1b2324" text-anchor="start" font-weight="700" font-family="Arial, Helvetica, sans-serif">Transition: Mara carries NURSERY FIXED into the nursery, Elias follows</text>
<text x="760" y="26" font-size="12" fill="#667073" text-anchor="start" font-weight="400" font-family="Arial, Helvetica, sans-serif">Same reverse corridor view, locked</text>
<text x="20" y="848" font-size="13" fill="#1b2324" text-anchor="start" font-weight="400" font-family="Arial, Helvetica, sans-serif">Owen works near the far-window end: in SH14 he walks from here toward the landing.</text><text x="20" y="866" font-size="13" fill="#1b2324" text-anchor="start" font-weight="400" font-family="Arial, Helvetica, sans-serif">Mara and Elias come up from the landing and turn in through the nursery door (right wall).</text>
</svg>