<svg xmlns="http://www.w3.org/2000/svg" width="1160" height="902" viewBox="0 0 1160 902">
<rect width="100%" height="100%" fill="#ffffff"/>
<g transform="translate(20,40)"><rect x="0" y="0" width="660" height="760" fill="#e6e1d8"/><rect x="360" y="30" width="80" height="610" fill="#efe7da" stroke="#1b2324" stroke-width="2"/><rect x="385" y="50" width="30" height="570" fill="#b99a86" opacity="0.45"/><line x1="368" y1="30" x2="432" y2="30" stroke="#6f8fb8" stroke-width="7"/><text x="452" y="330" font-size="13" fill="#1b2324" text-anchor="start" font-weight="700" font-family="Arial, Helvetica, sans-serif">UPPER CORRIDOR</text><rect x="440" y="30" width="200" height="610" fill="#ddd6ca" stroke="#667073"/><rect x="436" y="120" width="8" height="40" fill="#8a6a45"/><rect x="436" y="380" width="8" height="40" fill="#8a6a45"/><rect x="436" y="520" width="8" height="40" fill="#8a6a45"/><text x="540" y="460" font-size="12" fill="#667073" text-anchor="middle" font-weight="400" font-family="Arial, Helvetica, sans-serif">other rooms</text><rect x="80" y="30" width="280" height="220" fill="#ddd6ca" stroke="#667073"/><text x="220" y="140" font-size="12" fill="#667073" text-anchor="middle" font-weight="400" font-family="Arial, Helvetica, sans-serif">other room</text><text x="355" y="22" font-size="12" fill="#1b2324" text-anchor="end" font-weight="700" font-family="Arial, Helvetica, sans-serif">FAR WINDOW (north) →</text><rect x="250" y="640" width="390" height="110" fill="#e0d6c4" stroke="#1b2324" stroke-width="2"/><text x="445" y="700" font-size="13" fill="#1b2324" text-anchor="middle" font-weight="700" font-family="Arial, Helvetica, sans-serif">CENTRAL LANDING (south) — top of main stair</text><text x="445" y="718" font-size="11" fill="#667073" text-anchor="middle" font-weight="400" font-family="Arial, Helvetica, sans-serif">monitor table + upper service door on its west wall</text><rect x="80" y="250" width="280" height="370" fill="#f4efe6" stroke="#1b2324" stroke-width="3"/><text x="220" y="606" font-size="16" fill="#1b2324" text-anchor="middle" font-weight="700" font-family="Arial, Helvetica, sans-serif">NURSERY</text><line x1="80" y1="265" x2="80" y2="345" stroke="#6f8fb8" stroke-width="7"/><text x="8" y="300" font-size="11" fill="#667073" text-anchor="start" font-weight="700" font-family="Arial, Helvetica, sans-serif">WINDOW</text><rect x="354" y="270" width="12" height="60" fill="#ffffff" stroke="#1b2324"/><path d="M360 270 A60 60 0 0 0 300 330" fill="none" stroke="#667073" stroke-dasharray="4 4"/><text x="300" y="262" font-size="12" fill="#1b2324" text-anchor="middle" font-weight="700" font-family="Arial, Helvetica, sans-serif">NURSERY DOOR</text><rect x="86" y="390" width="62" height="200" rx="3" fill="#ffffff" stroke="#1b2324"/><text x="117" y="500" font-size="12" fill="#1b2324" text-anchor="middle" font-weight="700" font-family="Arial, Helvetica, sans-serif">BED</text><text x="117" y="404" font-size="10" fill="#667073" text-anchor="middle" font-weight="400" font-family="Arial, Helvetica, sans-serif">foot</text><rect x="86" y="592" width="34" height="24" fill="#b08a62" stroke="#1b2324"/><circle cx="103" cy="604" r="6" fill="#f2b632"/><text x="124" y="590" font-size="10" fill="#667073" text-anchor="start" font-weight="400" font-family="Arial, Helvetica, sans-serif">lamp</text><rect x="306" y="572" width="46" height="42" rx="6" fill="#ffffff" stroke="#1b2324"/><text x="329" y="566" font-size="10" fill="#667073" text-anchor="middle" font-weight="400" font-family="Arial, Helvetica, sans-serif">armchair</text><rect x="170" y="360" width="160" height="200" fill="none" stroke="#667073" stroke-dasharray="5 4"/><rect x="215" y="430" width="60" height="40" fill="#5b3f2a" stroke="#1b2324"/><text x="245" y="455" font-size="10" fill="#ffffff" text-anchor="middle" font-weight="700" font-family="Arial, Helvetica, sans-serif">CHEST</text><circle cx="92" cy="262" r="7" fill="#c1302a"/><text x="102" y="244" font-size="11" fill="#c1302a" text-anchor="start" font-weight="700" font-family="Arial, Helvetica, sans-serif">NURSERY FIXED corner</text><polygon points="434,300 103,441 103,159" fill="#000000" fill-opacity="0.07" stroke="#000" stroke-opacity="0.35" stroke-dasharray="6 5"/><g transform="translate(434,300) rotate(180)"><rect x="-16" y="-11" width="26" height="22" rx="3" fill="#111"/><polygon points="10,-8 22,-13 22,13 10,8" fill="#111"/></g><text x="456" y="334" font-size="13" fill="#000" text-anchor="start" font-weight="700" font-family="Arial, Helvetica, sans-serif">CAMERA 35mm, locked, back to the east wall</text><circle cx="368" cy="300" r="13" fill="#6b7a3a" stroke="#fff" stroke-width="2"/><line x1="368" y1="300" x2="334.12938026488064" y2="297.03670474657963" stroke="#6b7a3a" stroke-width="5"/><polygon points="334.12938026488064,297.03670474657963 345.3,292.8 344.4,303.2" fill="#6b7a3a"/><text x="168" y="360" font-size="12" fill="#6b7a3a" text-anchor="start" font-weight="700" font-family="Arial, Helvetica, sans-serif">TALL MAN, OLIVE JACKET</text><text x="168" y="376" font-size="12" fill="#1b2324" text-anchor="start" font-weight="400" font-family="Arial, Helvetica, sans-serif">in the doorway, filming the corner</text><circle cx="104" cy="276" r="13" fill="#9b3b2b" stroke="#fff" stroke-width="2"/><line x1="104" y1="276" x2="79.95836943965739" y2="251.9583694396574" stroke="#9b3b2b" stroke-width="5"/><polygon points="79.95836943965739,251.9583694396574 91.3,255.9 83.9,263.3" fill="#9b3b2b"/><text x="128" y="310" font-size="12" fill="#9b3b2b" text-anchor="start" font-weight="700" font-family="Arial, Helvetica, sans-serif">SMALL WOMAN, RUST VEST</text><line x1="400" y1="230" x2="400" y2="380" stroke="#2f3f8f" stroke-width="3" stroke-dasharray="7 5"/><polygon points="400,380 394.8,369.2 405.2,369.2" fill="#2f3f8f"/><circle cx="400" cy="380" r="11" fill="none" stroke="#2f3f8f" stroke-width="2.5"/><circle cx="400" cy="230" r="13" fill="#2f3f8f" stroke="#fff" stroke-width="2"/><line x1="400" y1="230" x2="400.0" y2="264.0" stroke="#2f3f8f" stroke-width="5"/><polygon points="400.0,264.0 394.8,253.2 405.2,253.2" fill="#2f3f8f"/><text x="424" y="220" font-size="12" fill="#2f3f8f" text-anchor="start" font-weight="700" font-family="Arial, Helvetica, sans-serif">BIG BEARDED MAN, INDIGO</text><text x="424" y="236" font-size="12" fill="#1b2324" text-anchor="start" font-weight="400" font-family="Arial, Helvetica, sans-serif">walks SOUTH (frame-left)</text><text x="424" y="251" font-size="12" fill="#1b2324" text-anchor="start" font-weight="400" font-family="Arial, Helvetica, sans-serif">toward the landing, carrying</text><text x="424" y="266" font-size="12" fill="#1b2324" text-anchor="start" font-weight="400" font-family="Arial, Helvetica, sans-serif">camera + tool pouch</text><line x1="404" y1="170" x2="404" y2="300" stroke="#b88a45" stroke-width="3" stroke-dasharray="7 5"/><polygon points="404,300 398.8,289.2 409.2,289.2" fill="#b88a45"/><circle cx="404" cy="300" r="11" fill="none" stroke="#b88a45" stroke-width="2.5"/><circle cx="404" cy="170" r="13" fill="#b88a45" stroke="#fff" stroke-width="2"/><line x1="404" y1="170" x2="404.0" y2="204.0" stroke="#b88a45" stroke-width="5"/><polygon points="404.0,204.0 398.8,193.2 409.2,193.2" fill="#b88a45"/><text x="154" y="160" font-size="12" fill="#b88a45" text-anchor="start" font-weight="700" font-family="Arial, Helvetica, sans-serif">TALL WOMAN, CAMEL COAT</text><text x="154" y="176" font-size="12" fill="#1b2324" text-anchor="start" font-weight="400" font-family="Arial, Helvetica, sans-serif">a few steps behind him</text><text x="154" y="191" font-size="12" fill="#1b2324" text-anchor="start" font-weight="400" font-family="Arial, Helvetica, sans-serif">with her recorder</text><text x="760" y="48" font-size="15" fill="#1b2324" text-anchor="start" font-weight="700" font-family="Arial, Helvetica, sans-serif">WHAT THE CAMERA SEES (9:16)</text><rect x="760" y="60" width="300" height="533" fill="#ffffff" stroke="#1b2324" stroke-width="2"/><line x1="860" y1="60" x2="860" y2="593" stroke="#c8cccd" stroke-dasharray="4 4"/><line x1="960" y1="60" x2="960" y2="593" stroke="#c8cccd" stroke-dasharray="4 4"/><text x="810.0" y="611" font-size="11" fill="#667073" text-anchor="middle" font-weight="600" font-family="Arial, Helvetica, sans-serif">LEFT</text><text x="910.0" y="611" font-size="11" fill="#667073" text-anchor="middle" font-weight="600" font-family="Arial, Helvetica, sans-serif">CENTRE</text><text x="1010.0" y="611" font-size="11" fill="#667073" text-anchor="middle" font-weight="600" font-family="Arial, Helvetica, sans-serif">RIGHT</text><clipPath id="frameclip"><rect x="760" y="60" width="300" height="533"/></clipPath><g clip-path="url(#frameclip)"><rect x="850" y="103" width="120" height="426" fill="#f4efe6" fill-opacity="0.85" stroke="#1b2324"/><circle cx="946" cy="145" r="5" fill="#9b3b2b"/><rect x="940" y="150" width="12" height="53" rx="4" fill="#9b3b2b"/><circle cx="910" cy="199" r="16" fill="#6b7a3a"/><rect x="888" y="217" width="45" height="277" rx="4" fill="#6b7a3a"/><circle cx="1006" cy="156" r="23" fill="#2f3f8f"/><rect x="973" y="182" width="66" height="394" rx="4" fill="#2f3f8f"/><circle cx="1057" cy="167" r="19" fill="#b88a45"/><rect x="1030" y="188" width="54" height="373" rx="4" fill="#b88a45"/></g><text x="910" y="119" font-size="11" fill="#1b2324" text-anchor="middle" font-weight="700" font-family="Arial, Helvetica, sans-serif" paint-order="stroke" stroke="#f4efe6" stroke-width="4">NURSERY DOORWAY</text><text x="910" y="508" font-size="11" fill="#6b7a3a" text-anchor="middle" font-weight="700" font-family="Arial, Helvetica, sans-serif" paint-order="stroke" stroke="#ffffff" stroke-width="4">OLIVE (back)</text><text x="1006" y="551" font-size="11" fill="#2f3f8f" text-anchor="middle" font-weight="700" font-family="Arial, Helvetica, sans-serif" paint-order="stroke" stroke="#ffffff" stroke-width="4">BEARDED → LEFT</text><text x="1057" y="597" font-size="11" fill="#b88a45" text-anchor="middle" font-weight="700" font-family="Arial, Helvetica, sans-serif" paint-order="stroke" stroke="#ffffff" stroke-width="4">CAMEL</text><text x="760" y="633" font-size="12" fill="#1b2324" text-anchor="start" font-weight="400" font-family="Arial, Helvetica, sans-serif">Camera faces the doorway. Landing is</text><text x="760" y="649" font-size="12" fill="#1b2324" text-anchor="start" font-weight="400" font-family="Arial, Helvetica, sans-serif">frame-LEFT, far window frame-RIGHT.</text><text x="760" y="665" font-size="12" fill="#1b2324" text-anchor="start" font-weight="400" font-family="Arial, Helvetica, sans-serif">People in the corridor walk right→left.</text></g>
<text x="20" y="26" font-size="16" fill="#1b2324" text-anchor="start" font-weight="700" font-family="Arial, Helvetica, sans-serif">SH14 — TOP-DOWN PLAN: positions and directions only, not an image to copy</text>
<text x="20" y="826" font-size="14" fill="#1b2324" text-anchor="start" font-weight="700" font-family="Arial, Helvetica, sans-serif">Owen passes with BELL BOARD FIXED; Elias/Mara banter</text>
<text x="760" y="26" font-size="12" fill="#667073" text-anchor="start" font-weight="400" font-family="Arial, Helvetica, sans-serif">Corridor angle straight into the nursery doorway (west)</text>
<text x="20" y="848" font-size="13" fill="#1b2324" text-anchor="start" font-weight="400" font-family="Arial, Helvetica, sans-serif">Screen direction: toward the landing = frame-LEFT. Owen enters from frame-right and walks left.</text><text x="20" y="866" font-size="13" fill="#1b2324" text-anchor="start" font-weight="400" font-family="Arial, Helvetica, sans-serif">The small woman is seen through the doorway, high in the far corner ahead-right.</text>
</svg>