<svg xmlns="http://www.w3.org/2000/svg" width="1160" height="902" viewBox="0 0 1160 902">
<rect width="100%" height="100%" fill="#ffffff"/>
<g transform="translate(20,40)"><rect x="0" y="0" width="660" height="760" fill="#e6e1d8"/><rect x="360" y="30" width="80" height="610" fill="#efe7da" stroke="#1b2324" stroke-width="2"/><rect x="385" y="50" width="30" height="570" fill="#b99a86" opacity="0.45"/><line x1="368" y1="30" x2="432" y2="30" stroke="#6f8fb8" stroke-width="7"/><text x="452" y="330" font-size="13" fill="#1b2324" text-anchor="start" font-weight="700" font-family="Arial, Helvetica, sans-serif">UPPER CORRIDOR</text><rect x="440" y="30" width="200" height="610" fill="#ddd6ca" stroke="#667073"/><rect x="436" y="120" width="8" height="40" fill="#8a6a45"/><rect x="436" y="380" width="8" height="40" fill="#8a6a45"/><rect x="436" y="520" width="8" height="40" fill="#8a6a45"/><text x="540" y="460" font-size="12" fill="#667073" text-anchor="middle" font-weight="400" font-family="Arial, Helvetica, sans-serif">other rooms</text><rect x="80" y="30" width="280" height="220" fill="#ddd6ca" stroke="#667073"/><text x="220" y="140" font-size="12" fill="#667073" text-anchor="middle" font-weight="400" font-family="Arial, Helvetica, sans-serif">other room</text><text x="355" y="22" font-size="12" fill="#1b2324" text-anchor="end" font-weight="700" font-family="Arial, Helvetica, sans-serif">FAR WINDOW (north) →</text><rect x="250" y="640" width="390" height="110" fill="#e0d6c4" stroke="#1b2324" stroke-width="2"/><text x="445" y="700" font-size="13" fill="#1b2324" text-anchor="middle" font-weight="700" font-family="Arial, Helvetica, sans-serif">CENTRAL LANDING (south) — top of main stair</text><text x="445" y="718" font-size="11" fill="#667073" text-anchor="middle" font-weight="400" font-family="Arial, Helvetica, sans-serif">monitor table + upper service door on its west wall</text><rect x="80" y="250" width="280" height="370" fill="#f4efe6" stroke="#1b2324" stroke-width="3"/><text x="220" y="606" font-size="16" fill="#1b2324" text-anchor="middle" font-weight="700" font-family="Arial, Helvetica, sans-serif">NURSERY</text><line x1="80" y1="265" x2="80" y2="345" stroke="#6f8fb8" stroke-width="7"/><text x="8" y="300" font-size="11" fill="#667073" text-anchor="start" font-weight="700" font-family="Arial, Helvetica, sans-serif">WINDOW</text><rect x="354" y="270" width="12" height="60" fill="#ffffff" stroke="#1b2324"/><path d="M360 270 A60 60 0 0 0 300 330" fill="none" stroke="#667073" stroke-dasharray="4 4"/><text x="300" y="262" font-size="12" fill="#1b2324" text-anchor="middle" font-weight="700" font-family="Arial, Helvetica, sans-serif">NURSERY DOOR</text><rect x="86" y="390" width="62" height="200" rx="3" fill="#ffffff" stroke="#1b2324"/><text x="117" y="500" font-size="12" fill="#1b2324" text-anchor="middle" font-weight="700" font-family="Arial, Helvetica, sans-serif">BED</text><text x="117" y="404" font-size="10" fill="#667073" text-anchor="middle" font-weight="400" font-family="Arial, Helvetica, sans-serif">foot</text><rect x="86" y="592" width="34" height="24" fill="#b08a62" stroke="#1b2324"/><circle cx="103" cy="604" r="6" fill="#f2b632"/><text x="124" y="590" font-size="10" fill="#667073" text-anchor="start" font-weight="400" font-family="Arial, Helvetica, sans-serif">lamp</text><rect x="306" y="572" width="46" height="42" rx="6" fill="#ffffff" stroke="#1b2324"/><text x="329" y="566" font-size="10" fill="#667073" text-anchor="middle" font-weight="400" font-family="Arial, Helvetica, sans-serif">armchair</text><rect x="170" y="360" width="160" height="200" fill="none" stroke="#667073" stroke-dasharray="5 4"/><rect x="215" y="430" width="60" height="40" fill="#5b3f2a" stroke="#1b2324"/><text x="245" y="455" font-size="10" fill="#ffffff" text-anchor="middle" font-weight="700" font-family="Arial, Helvetica, sans-serif">CHEST</text><circle cx="92" cy="262" r="7" fill="#c1302a"/><text x="102" y="244" font-size="11" fill="#c1302a" text-anchor="start" font-weight="700" font-family="Arial, Helvetica, sans-serif">NURSERY FIXED corner</text><polygon points="250,600 49,278 451,278" fill="#000000" fill-opacity="0.07" stroke="#000" stroke-opacity="0.35" stroke-dasharray="6 5"/><g transform="translate(250,600) rotate(-90)"><rect x="-16" y="-11" width="26" height="22" rx="3" fill="#111"/><polygon points="10,-8 22,-13 22,13 10,8" fill="#111"/></g><text x="90" y="646" font-size="13" fill="#000" text-anchor="start" font-weight="700" font-family="Arial, Helvetica, sans-serif">CAMERA 28mm, LOCKED</text><line x1="110" y1="280" x2="160" y2="330" stroke="#9b3b2b" stroke-width="3" stroke-dasharray="7 5"/><line x1="160" y1="330" x2="300" y2="320" stroke="#9b3b2b" stroke-width="3" stroke-dasharray="7 5"/><line x1="300" y1="320" x2="345" y2="300" stroke="#9b3b2b" stroke-width="3" stroke-dasharray="7 5"/><polygon points="345,300 337.2,309.2 333.0,299.6" fill="#9b3b2b"/><circle cx="345" cy="300" r="11" fill="none" stroke="#9b3b2b" stroke-width="2.5"/><circle cx="110" cy="280" r="13" fill="#9b3b2b" stroke="#fff" stroke-width="2"/><line x1="110" y1="280" x2="85.95836943965739" y2="255.9583694396574" stroke="#9b3b2b" stroke-width="5"/><polygon points="85.95836943965739,255.9583694396574 97.3,259.9 89.9,267.3" fill="#9b3b2b"/><text x="150" y="340" font-size="12" fill="#9b3b2b" text-anchor="start" font-weight="700" font-family="Arial, Helvetica, sans-serif">SMALL WOMAN, RUST VEST</text><text x="150" y="356" font-size="12" fill="#1b2324" text-anchor="start" font-weight="400" font-family="Arial, Helvetica, sans-serif">on the stool in the corner; final</text><text x="150" y="371" font-size="12" fill="#1b2324" text-anchor="start" font-weight="400" font-family="Arial, Helvetica, sans-serif">twist, steps down, lifts the monitor</text><text x="150" y="386" font-size="12" fill="#1b2324" text-anchor="start" font-weight="400" font-family="Arial, Helvetica, sans-serif">case, walks out the door on the RIGHT</text><text x="760" y="48" font-size="15" fill="#1b2324" text-anchor="start" font-weight="700" font-family="Arial, Helvetica, sans-serif">WHAT THE CAMERA SEES (9:16)</text><rect x="760" y="60" width="300" height="533" fill="#ffffff" stroke="#1b2324" stroke-width="2"/><line x1="860" y1="60" x2="860" y2="593" stroke="#c8cccd" stroke-dasharray="4 4"/><line x1="960" y1="60" x2="960" y2="593" stroke="#c8cccd" stroke-dasharray="4 4"/><text x="810.0" y="611" font-size="11" fill="#667073" text-anchor="middle" font-weight="600" font-family="Arial, Helvetica, sans-serif">LEFT</text><text x="910.0" y="611" font-size="11" fill="#667073" text-anchor="middle" font-weight="600" font-family="Arial, Helvetica, sans-serif">CENTRE</text><text x="1010.0" y="611" font-size="11" fill="#667073" text-anchor="middle" font-weight="600" font-family="Arial, Helvetica, sans-serif">RIGHT</text><clipPath id="frameclip"><rect x="760" y="60" width="300" height="533"/></clipPath><g clip-path="url(#frameclip)"><rect x="760" y="220" width="60" height="320" fill="#ffffff" fill-opacity="0.85" stroke="#1b2324"/><rect x="772" y="113" width="66" height="96" fill="#6f8fb8" fill-opacity="0.85" stroke="#1b2324"/><rect x="880" y="412" width="60" height="53" fill="#5b3f2a" fill-opacity="0.85" stroke="#1b2324"/><rect x="1000" y="145" width="54" height="245" fill="#ffffff" fill-opacity="0.85" stroke="#1b2324"/><circle cx="820" cy="124" r="10" fill="#9b3b2b"/><rect x="805" y="136" width="30" height="139" rx="4" fill="#9b3b2b"/></g><text x="790" y="236" font-size="11" fill="#1b2324" text-anchor="middle" font-weight="700" font-family="Arial, Helvetica, sans-serif" paint-order="stroke" stroke="#ffffff" stroke-width="4">IRON BED (left wall)</text><text x="805" y="129" font-size="11" fill="#ffffff" text-anchor="middle" font-weight="700" font-family="Arial, Helvetica, sans-serif" paint-order="stroke" stroke="#6f8fb8" stroke-width="4">WINDOW</text><text x="910" y="428" font-size="11" fill="#ffffff" text-anchor="middle" font-weight="700" font-family="Arial, Helvetica, sans-serif" paint-order="stroke" stroke="#5b3f2a" stroke-width="4">CHEST + BOX</text><text x="1027" y="161" font-size="11" fill="#1b2324" text-anchor="middle" font-weight="700" font-family="Arial, Helvetica, sans-serif" paint-order="stroke" stroke="#ffffff" stroke-width="4">OPEN DOOR</text><text x="820" y="295" font-size="11" fill="#9b3b2b" text-anchor="middle" font-weight="700" font-family="Arial, Helvetica, sans-serif" paint-order="stroke" stroke="#ffffff" stroke-width="4">RUST (back 3/4, on stool)</text><text x="760" y="633" font-size="12" fill="#1b2324" text-anchor="start" font-weight="400" font-family="Arial, Helvetica, sans-serif">MEDIUM-WIDE from the far end of the room.</text><text x="760" y="649" font-size="12" fill="#1b2324" text-anchor="start" font-weight="400" font-family="Arial, Helvetica, sans-serif">Bed along the LEFT wall, door on the RIGHT.</text><text x="760" y="665" font-size="12" fill="#1b2324" text-anchor="start" font-weight="400" font-family="Arial, Helvetica, sans-serif">Small woman upper-left in the camera</text><text x="760" y="681" font-size="12" fill="#1b2324" text-anchor="start" font-weight="400" font-family="Arial, Helvetica, sans-serif">corner; she leaves through the door right.</text></g>
<text x="20" y="26" font-size="16" fill="#1b2324" text-anchor="start" font-weight="700" font-family="Arial, Helvetica, sans-serif">SH16 — TOP-DOWN PLAN: positions and directions only, not an image to copy</text>
<text x="20" y="826" font-size="14" fill="#1b2324" text-anchor="start" font-weight="700" font-family="Arial, Helvetica, sans-serif">Mara finishes the mount and takes the monitor case out (MWS, 28mm)</text>
<text x="760" y="26" font-size="12" fill="#667073" text-anchor="start" font-weight="400" font-family="Arial, Helvetica, sans-serif">NEW ANGLE: inside the nursery from the far end, looking north</text>
<text x="20" y="848" font-size="13" fill="#1b2324" text-anchor="start" font-weight="400" font-family="Arial, Helvetica, sans-serif">Reverse of the NURSERY FIXED view: the camera corner is now ahead-left, high.</text><text x="20" y="866" font-size="13" fill="#1b2324" text-anchor="start" font-weight="400" font-family="Arial, Helvetica, sans-serif">She exits frame-RIGHT through the door into the corridor (toward the landing).</text>
</svg>